<svg width="32" height="33" viewBox="0 0 32 33" fill="none" xmlns="http://www.w3.org/2000/svg">
<g clip-path="url(#clip0_83_4766)">
<path d="M29.056 25.6975C28.5721 26.8155 27.9993 27.8446 27.3356 28.7907C26.4309 30.0806 25.6902 30.9734 25.1194 31.4692C24.2345 32.283 23.2863 32.6997 22.2711 32.7234C21.5422 32.7234 20.6632 32.516 19.64 32.0953C18.6135 31.6766 17.6701 31.4692 16.8075 31.4692C15.9029 31.4692 14.9326 31.6766 13.8948 32.0953C12.8555 32.516 12.0182 32.7353 11.378 32.757C10.4044 32.7985 9.43394 32.3699 8.46528 31.4692C7.84703 30.9299 7.07372 30.0055 6.14733 28.6959C5.15338 27.2974 4.33623 25.6758 3.69605 23.8269C3.01044 21.83 2.66675 19.8962 2.66675 18.024C2.66675 15.8795 3.13014 14.0299 4.05831 12.4799C4.78777 11.2349 5.7582 10.2528 6.97278 9.53185C8.18736 8.81089 9.49971 8.44349 10.913 8.41998C11.6863 8.41998 12.7004 8.65919 13.9606 9.1293C15.2173 9.60099 16.0241 9.84019 16.3779 9.84019C16.6424 9.84019 17.5388 9.56049 19.0583 9.00288C20.4953 8.48576 21.7081 8.27164 22.7017 8.35599C25.3939 8.57326 27.4166 9.63456 28.7617 11.5466C26.3539 13.0055 25.1628 15.0489 25.1865 17.6703C25.2083 19.7121 25.949 21.4112 27.4047 22.7603C28.0645 23.3864 28.8012 23.8704 29.6209 24.2141C29.4432 24.7296 29.2555 25.2234 29.056 25.6975ZM22.8814 1.39995C22.8814 3.00031 22.2967 4.49457 21.1313 5.87764C19.725 7.52184 18.0239 8.47193 16.1792 8.32201C16.1557 8.13002 16.1421 7.92795 16.1421 7.71561C16.1421 6.17926 16.8109 4.53506 17.9986 3.19071C18.5916 2.51004 19.3457 1.94407 20.2603 1.49259C21.1728 1.04784 22.036 0.801884 22.8478 0.759766C22.8715 0.97371 22.8814 1.18767 22.8814 1.39993V1.39995Z" fill="black"/>
</g>
<defs>
<clipPath id="clip0_83_4766">
<rect width="32" height="32" fill="white" transform="translate(0 0.759521)"/>
</clipPath>
</defs>
</svg>
