<svg width="32" height="33" viewBox="0 0 32 33" fill="none" xmlns="http://www.w3.org/2000/svg">
<g clip-path="url(#clip0_83_4822)">
<path d="M32 16.7595C32 7.92304 24.8365 0.759521 16 0.759521C7.16352 0.759521 0 7.92304 0 16.7595C0 24.2629 5.16608 30.5592 12.135 32.2885V21.6491H8.83584V16.7595H12.135V14.6526C12.135 9.20688 14.5997 6.68272 19.9462 6.68272C20.96 6.68272 22.7091 6.88176 23.4246 7.08016V11.5122C23.047 11.4725 22.391 11.4526 21.5763 11.4526C18.953 11.4526 17.9392 12.4466 17.9392 15.0302V16.7595H23.1654L22.2675 21.6491H17.9392V32.6424C25.8618 31.6856 32.0006 24.94 32.0006 16.7595H32Z" fill="#0866FF"/>
<path d="M22.2669 21.649L23.1648 16.7594H17.9386V15.0301C17.9386 12.4465 18.9523 11.4525 21.5757 11.4525C22.3904 11.4525 23.0464 11.4724 23.424 11.5121V7.08006C22.7085 6.88102 20.9594 6.68262 19.9456 6.68262C14.599 6.68262 12.1344 9.20678 12.1344 14.6525V16.7594H8.83521V21.649H12.1344V32.2884C13.3722 32.5956 14.6669 32.7594 15.9994 32.7594C16.6554 32.7594 17.3024 32.7191 17.9379 32.6423V21.649H22.2662H22.2669Z" fill="white"/>
</g>
<defs>
<clipPath id="clip0_83_4822">
<rect width="32" height="32" fill="white" transform="translate(0 0.759521)"/>
</clipPath>
</defs>
</svg>
