<svg width="32" height="33" viewBox="0 0 32 33" fill="none" xmlns="http://www.w3.org/2000/svg">
<g clip-path="url(#clip0_83_4763)">
<path d="M15.9998 13.8503V20.0467H24.6106C24.2325 22.0394 23.0978 23.7268 21.3961 24.8613L26.5888 28.8904C29.6142 26.0978 31.3597 21.9959 31.3597 17.1232C31.3597 15.9887 31.2579 14.8977 31.0687 13.8505L15.9998 13.8503Z" fill="#4285F4"/>
<path d="M7.03298 19.8049L5.86183 20.7014L1.71631 23.9305C4.34903 29.1522 9.74499 32.7596 15.9995 32.7596C20.3194 32.7596 23.9411 31.3341 26.5885 28.8905L21.3958 24.8614C19.9703 25.8214 18.1521 26.4033 15.9995 26.4033C11.8395 26.4033 8.30507 23.596 7.03952 19.8142L7.03298 19.8049Z" fill="#34A853"/>
<path d="M1.71624 9.58862C0.625389 11.7413 0 14.1704 0 16.7594C0 19.3485 0.625389 21.7776 1.71624 23.9303C1.71624 23.9447 7.03997 19.7993 7.03997 19.7993C6.71997 18.8393 6.53082 17.8212 6.53082 16.7593C6.53082 15.6973 6.71997 14.6792 7.03997 13.7192L1.71624 9.58862Z" fill="#FBBC05"/>
<path d="M15.9998 7.13043C18.3562 7.13043 20.4507 7.94495 22.1235 9.51588L26.7052 4.93412C23.927 2.34507 20.3199 0.759521 15.9998 0.759521C9.74532 0.759521 4.34903 4.35224 1.71631 9.58862L7.03987 13.7195C8.30525 9.93768 11.8398 7.13043 15.9998 7.13043Z" fill="#EA4335"/>
</g>
<defs>
<clipPath id="clip0_83_4763">
<rect width="32" height="32" fill="white" transform="translate(0 0.759521)"/>
</clipPath>
</defs>
</svg>
