<svg width="128" height="81" viewBox="0 0 128 81" fill="none" xmlns="http://www.w3.org/2000/svg">
<g clip-path="url(#clip0_83_4790)">
<path d="M127.087 34.4404C126.344 36.0744 125.601 37.7083 124.893 39.3778C120.824 48.6132 116.791 57.8131 112.722 67.0485C112.58 67.3564 112.686 67.5103 113.04 67.5103C116.118 67.5814 118.808 66.5868 121.072 64.491C122.558 63.1057 123.407 61.3297 123.938 59.4116C124.327 58.0973 124.539 56.7475 124.646 55.3977C124.681 55.1491 124.752 55.0425 125.035 55.0425C125.672 55.0425 125.99 55.3622 125.99 56.0016C125.955 59.0208 126.026 62.0756 126.096 65.0949C126.132 66.0895 126.167 67.0841 126.238 68.0786C126.273 68.8956 126.344 68.7535 125.636 68.718C120.081 68.4694 114.562 68.4339 109.007 68.5049C106.034 68.5404 103.027 68.6115 100.055 68.7891H99.7009C99.9132 68.3273 100.09 67.9366 100.267 67.5103C104.867 57.0672 109.467 46.5885 114.066 36.1454C114.279 35.6481 114.279 35.6837 113.748 35.6481C111.766 35.5771 109.856 35.8613 108.087 36.8203C105.398 38.2412 103.77 40.5145 102.956 43.4272C102.567 44.848 102.319 46.2689 102.178 47.7252C102.142 48.0094 102.072 48.1159 101.788 48.1159C101.152 48.1159 100.833 47.8081 100.833 47.1924C100.833 43.96 100.798 40.7631 100.727 37.5307C100.692 36.6427 100.656 35.7547 100.585 34.8667C100.55 34.5115 100.656 34.4049 101.01 34.4404C105.539 34.6536 110.103 34.7246 114.632 34.6891C118.489 34.6891 122.31 34.547 126.167 34.4049C126.486 34.4049 126.804 34.3694 127.158 34.3339C127.087 34.4049 127.087 34.4404 127.087 34.4404Z" fill="#FE5F55"/>
<path d="M72.244 80.7595C71.3948 80.5819 70.5103 80.5109 69.6965 80.2267C68.5996 79.8715 67.5381 79.4452 66.5828 78.7704C65.026 77.6692 64.3537 76.1418 64.4952 74.2592C64.6368 72.2345 65.769 70.9203 67.5735 70.2098C69.6257 69.3929 71.7133 69.3573 73.8008 70.0677C76.8791 71.1334 77.233 74.4013 76.313 76.3549C75.6407 77.7758 74.5439 78.6993 73.1286 79.2321C72.987 79.3032 72.8455 79.3387 72.6686 79.4097C76.0299 79.9425 78.5067 79.2676 80.1697 76.1418C80.6297 75.2893 80.9127 74.3658 81.1958 73.4422C81.2666 73.2291 81.1604 73.0515 81.0897 72.8739C77.7991 65.6276 74.5439 58.3459 71.2533 51.0996C70.8287 50.1406 70.3687 49.146 69.9441 48.1869C69.838 48.0093 69.8734 47.8672 70.0149 47.7252C73.0224 44.9545 76.0299 42.1839 79.0728 39.3422C81.6204 45.4163 84.1326 51.4548 86.7155 57.5644C86.9278 56.925 87.1047 56.3922 87.2816 55.8594C88.1662 53.0178 89.2276 50.2471 90.0061 47.3699C90.5368 45.4163 90.8199 43.4627 90.6429 41.438C90.5014 39.9816 90.1122 38.5963 89.1215 37.4596C88.3785 36.6427 87.4585 36.1454 86.3617 36.0033C86.0786 35.9678 85.9371 35.8967 85.9371 35.577C85.9371 34.914 86.2673 34.6061 86.9278 34.6535C90.183 34.8666 93.4736 34.9021 96.7287 34.7245H96.8703C97.1887 34.689 97.6487 34.5114 97.7195 34.689C97.861 35.0087 97.7902 35.4705 97.7902 35.8612C97.7902 35.9678 97.6841 36.0033 97.6133 36.0388C96.0919 36.6782 95.1365 37.8859 94.3935 39.3067C93.6505 40.7275 93.1905 42.2549 92.6951 43.7823C89.2276 54.0479 85.8663 64.3844 82.2573 74.6144C82.0096 75.3604 81.6912 76.0708 81.3373 76.7457C80.2051 79.0545 78.3298 80.1912 75.853 80.5464C75.4638 80.6174 75.0746 80.5819 74.6854 80.724C73.8362 80.7595 73.0224 80.7595 72.244 80.7595Z" fill="#FE5F55"/>
<path d="M34.42 71.5241C34.3492 71.5241 33.1108 70.1743 33.1108 70.1032C33.1108 69.9611 33.2524 69.8901 33.3585 69.8191C34.9861 68.2917 36.6137 66.7998 38.2413 65.2724C41.4965 62.2531 44.7517 59.2338 48.0069 56.2501C54.8357 49.9274 61.6292 43.6402 68.458 37.3175C72.3855 33.6944 76.313 30.0357 80.2404 26.4126C86.6801 20.4451 93.1197 14.5131 99.5593 8.54563C102.248 6.05917 104.937 3.57272 107.591 1.08626C108.087 0.660008 108.051 0.624487 108.511 1.12178C108.723 1.3349 108.9 1.58355 109.148 1.79667C109.396 2.0098 109.36 2.15188 109.113 2.36501C107.591 3.78584 106.07 5.20667 104.513 6.59199C97.3302 13.2344 90.1829 19.8768 83.0003 26.5192C76.7376 32.3446 70.4395 38.1345 64.1767 43.9599C57.1356 50.4957 50.0591 57.0316 43.018 63.5674C40.2227 66.1604 37.4629 68.7179 34.6677 71.3109C34.5969 71.4175 34.4908 71.4885 34.42 71.5241Z" fill="#FE5F55"/>
<path d="M71.0412 26.3452V16.0796C70.0151 17.607 68.6705 18.6727 67.5737 19.9869C66.0876 21.7985 65.7338 23.8587 65.9107 26.0965C65.9461 26.5583 66.0168 26.9845 66.1584 27.4463C66.4414 28.2988 66.9368 28.9737 67.8567 29.3289C66.9368 30.1814 66.0168 31.0339 65.1323 31.8509C64.3539 32.5613 63.5754 33.3072 62.797 34.0177C62.6909 34.1242 62.5847 34.2308 62.4078 34.1953C58.8696 34.0887 56.1805 32.2771 55.5436 28.6185C54.9067 24.9954 56.039 22.4024 59.5418 20.2711C61.2402 19.241 63.1155 18.6727 64.9907 18.0333C66.5122 17.5005 68.069 16.9677 69.4843 16.1507C70.5458 15.5468 71.1119 14.6943 71.0766 13.4156C71.0412 11.6395 71.0766 9.8635 71.0766 8.08746C71.0766 7.09288 70.7935 6.20486 70.3689 5.31684C69.8382 4.32226 69.0244 3.75392 67.9275 3.57632C66.5122 3.36319 65.1677 3.57632 63.9293 4.32226C63.8585 4.35778 63.7877 4.42882 63.717 4.49986C64.1416 4.71298 64.5662 4.89059 64.9554 5.10371C67.1845 6.38246 68.2106 9.08205 67.2906 11.4975C66.583 13.4156 65.0615 14.3391 63.1509 14.7299C62.1601 14.9075 61.134 14.8719 60.1787 14.5167C58.3742 13.8774 57.2066 12.1013 57.1004 10.0766C56.9943 7.90986 57.8789 6.24038 59.6126 4.96163C61.311 3.7184 63.2216 3.04351 65.2738 2.72382C67.8567 2.29757 70.475 2.22653 73.0934 2.47517C75.1455 2.6883 77.1624 3.11455 78.8607 4.42882C80.3822 5.60101 81.196 7.09288 81.479 8.97548C81.8329 11.4264 81.7267 13.8774 81.7621 16.3283C81.7621 16.5414 81.6559 16.648 81.5498 16.7545C78.8253 19.2765 76.1009 21.7985 73.3764 24.3205C72.7395 24.8888 72.138 25.4927 71.5011 26.061C71.3242 26.132 71.2181 26.2031 71.0412 26.3452Z" fill="#FE5F55"/>
<path d="M53.7036 33.73C53.7036 33.3274 53.5031 33.1143 53.1021 33.0906C51.6868 33.0196 50.873 32.3447 50.5546 30.9594C50.3423 30.1424 50.3423 29.2899 50.3423 28.4374V12.4175C50.3423 10.9256 50.2715 9.39824 49.9884 7.94189C49.4577 5.13575 47.8301 3.35971 44.9995 2.75585C42.9119 2.29408 40.8597 2.3296 38.7722 2.68481C35.8354 3.1821 33.5355 4.63845 32.0849 7.33804C32.0495 7.40908 32.0141 7.51564 31.9079 7.51564C31.8726 7.40908 31.8372 7.267 31.8018 7.16043C31.1295 4.8871 29.6435 3.46627 27.379 2.86241C25.4329 2.3296 23.4515 2.3296 21.4347 2.61377C18.7456 3.04002 16.5519 4.24773 15.1012 6.62762C15.0658 6.69866 15.0658 6.7697 14.9243 6.73418V3.11106C14.9243 2.75585 14.7592 2.60193 14.429 2.64929C11.4922 3.1821 8.52006 3.32418 5.54792 3.39523C3.99109 3.50179 2.39887 3.39523 0.842041 3.28866V4.56741C2.57579 4.46085 3.63726 5.41991 3.99109 7.33804C4.13262 8.08397 4.168 8.86543 4.168 9.61137V29.1478C4.168 29.7517 4.13262 30.3555 3.99109 30.9594C3.67265 32.2737 2.89423 32.9841 1.51431 33.0906H0.842041V34.3694C2.36349 34.3339 3.88494 34.2628 5.40639 34.2273C8.13085 34.1563 10.8199 34.0852 13.5444 34.2273C14.6059 34.2983 15.7027 34.2983 16.7642 34.3339C16.9057 34.3339 17.0826 34.4049 17.0826 34.1918V33.2682C17.0826 33.1262 16.9411 33.1262 16.835 33.0906C15.7735 32.913 15.3843 32.5223 15.1366 31.4922C14.9597 30.6752 14.9243 29.8582 14.9243 29.0413V9.89554C14.9243 7.37356 16.9057 5.49095 19.4179 5.59752C20.3025 5.63304 20.904 6.05929 21.2224 6.87627C21.4347 7.40908 21.5408 7.94189 21.5408 8.51022C21.5762 9.93106 21.5762 11.3874 21.5762 12.8082C21.5762 18.5271 21.5762 24.2459 21.5408 29.9648C21.5408 30.5687 21.4347 31.1725 21.2578 31.7764C21.0101 32.5578 20.5148 33.0551 19.6656 33.1262C19.5594 33.1262 19.4179 33.0906 19.4179 33.2327C19.4179 33.5879 19.3825 33.9431 19.4179 34.2983C19.4179 34.4404 19.5594 34.4049 19.6656 34.4049C20.0902 34.4049 20.5501 34.3694 20.9747 34.3694C23.2392 34.2628 25.5037 34.1563 27.7682 34.1918C29.9265 34.2273 32.0849 34.3339 34.2432 34.4049C34.8093 34.4286 35.0924 34.1563 35.0924 33.5879C35.0924 33.2682 34.9862 33.1617 34.6678 33.1262C33.5002 33.0551 32.8279 32.4868 32.5448 31.3501C32.3325 30.4976 32.2971 29.6451 32.2971 28.7571V13.0569C32.2971 12.3465 32.4033 11.6005 32.2264 10.8901C31.8726 9.25616 33.394 6.69866 35.0924 5.9172C37.0384 5.02918 38.9137 5.81064 39.3737 7.72877C39.4444 8.04845 39.4798 8.33262 39.4798 8.65231C39.4798 11.7426 39.5152 14.8685 39.5152 17.9588C39.5152 21.9726 39.5152 25.9865 39.4798 30.0003C39.4798 30.6042 39.3737 31.1725 39.2321 31.7764C39.0552 32.4513 38.6306 32.9841 37.9584 33.0551C37.3922 33.1262 37.3215 33.3393 37.3922 33.8011V34.0497C37.3569 34.2983 37.463 34.4049 37.7107 34.3694C38.9137 34.2983 40.1521 34.2983 41.3551 34.2273C44.0795 34.1207 46.7686 34.1207 49.4931 34.2273C50.7669 34.2628 52.076 34.2983 53.3498 34.3694C53.5975 34.3694 53.7036 34.2983 53.6682 34.0497C53.7036 33.9787 53.7036 33.8366 53.7036 33.73Z" fill="#FE5F55"/>
</g>
<defs>
<clipPath id="clip0_83_4790">
<rect width="126.316" height="80" fill="white" transform="translate(0.842041 0.759521)"/>
</clipPath>
</defs>
</svg>
